<svg xmlns="http://www.w3.org/2000/svg" width="178" height="239" viewBox="0 0 178 239">
  <defs>
    <style>
      .cls-1 {
        fill: #fff;
      }

      .cls-1, .cls-2 {
        fill-rule: evenodd;
      }

      .cls-2 {
        fill: #2a0ed4;
      }
    </style>
  </defs>
  <path id="C" class="cls-1" d="M70.313,229h44.376V205.25h-47.5q-11.565,0-18.75-6.875a22.076,22.076,0,0,1-7.187-16.563V57.438a22.09,22.09,0,0,1,7.188-16.562Q55.623,34,67.188,34h47.5V10.25H70.313q-27.187,0-41.719,13.281T14.063,63.375v112.5q0,26.565,14.531,39.844T70.313,229h0Z"/>
  <path id="Q" class="cls-2" d="M135.438,192.062l16.843,16.844,12.469-12.468-15.969-15.969q5.029-8.746,5.031-21.657V80.063q0-18.59-10.171-27.891t-29.2-9.3h-8.75q-19.032,0-29.2,9.3T66.313,80.063v78.75q0,18.6,10.172,27.891t29.2,9.3h8.75q12.468,0,21-3.938h0ZM134.781,75.906v87.063a15.463,15.463,0,0,1-5.031,11.593q-5.034,4.815-13.125,4.813H103.5q-8.1,0-13.125-4.813a15.451,15.451,0,0,1-5.031-11.593V75.906a15.463,15.463,0,0,1,5.031-11.594Q95.4,59.5,103.5,59.5h13.125q8.091,0,13.125,4.813a15.475,15.475,0,0,1,5.031,11.594h0Z"/>
</svg>
